<?xml version="1.0" encoding="UTF-8"?>
<svg width="128" height="128" viewBox="0 0 128 128" fill="none" xmlns="http://www.w3.org/2000/svg">
    <rect width="128" height="128" rx="64" fill="#1677FF"/>
    <path d="M110 82.4C95.6 71.2 74.4 56 74.4 56H44V64H68C68 64 65.6 71.2 57.6 78.4C42.4 68 32 64.8 24.8 64C17.6 63.2 12 64.8 12 64.8C12 64.8 16 92 44 96.8C72 101.6 92 92 92 92L110 82.4ZM57.6 84.8C49.6 82.4 44 78.4 44 78.4C44 78.4 52 74.4 60 74.4C68 74.4 74.4 78.4 74.4 78.4C74.4 78.4 65.6 87.2 57.6 84.8Z" fill="white"/>
    <path d="M44 52H92V36H44V52Z" fill="white"/>
</svg> 