<?xml version="1.0" encoding="UTF-8"?>
<svg width="128" height="128" viewBox="0 0 128 128" fill="none" xmlns="http://www.w3.org/2000/svg">
    <rect width="128" height="128" rx="64" fill="#07C160"/>
    <path d="M92.8 84.8C92.8 75.2 82.4 67.2 69.6 67.2C56.8 67.2 46.4 75.2 46.4 84.8C46.4 94.4 56.8 102.4 69.6 102.4C73.6 102.4 77.6 101.6 80.8 99.2L88 102.4L86.4 96C90.4 93.6 92.8 89.6 92.8 84.8Z" fill="white"/>
    <path d="M81.6 25.6C66.4 25.6 54.4 35.2 54.4 46.4C54.4 52 58.4 57.6 64 60.8L62.4 68L70.4 64C73.6 65.6 77.6 66.4 81.6 66.4C96.8 66.4 108.8 56.8 108.8 46.4C108.8 35.2 96.8 25.6 81.6 25.6Z" fill="white"/>
    <path d="M73.6 41.6C73.6 43.7091 71.8091 45.5 69.7 45.5C67.5909 45.5 65.8 43.7091 65.8 41.6C65.8 39.4909 67.5909 37.7 69.7 37.7C71.8091 37.7 73.6 39.4909 73.6 41.6Z" fill="white"/>
    <path d="M93.6 41.6C93.6 43.7091 91.8091 45.5 89.7 45.5C87.5909 45.5 85.8 43.7091 85.8 41.6C85.8 39.4909 87.5909 37.7 89.7 37.7C91.8091 37.7 93.6 39.4909 93.6 41.6Z" fill="white"/>
    <path d="M61.6 80C61.6 81.5464 60.3464 82.8 58.8 82.8C57.2536 82.8 56 81.5464 56 80C56 78.4536 57.2536 77.2 58.8 77.2C60.3464 77.2 61.6 78.4536 61.6 80Z" fill="white"/>
    <path d="M77.6 80C77.6 81.5464 76.3464 82.8 74.8 82.8C73.2536 82.8 72 81.5464 72 80C72 78.4536 73.2536 77.2 74.8 77.2C76.3464 77.2 77.6 78.4536 77.6 80Z" fill="white"/>
</svg> 